{
  "accessors": [
    {
      "bufferView": 2,
      "componentType": 5126,
      "count": 4137,
      "max": [
        1.0853888988494873,
        5.072657585144043,
        1.4375091791152954
      ],
      "min": [
        -1.0,
        0.13252472877502441,
        -1.0
      ],
      "type": "VEC3"
    },
    {
      "bufferView": 2,
      "byteOffset": 49644,
      "componentType": 5126,
      "count": 4137,
      "max": [
        1.0,
        1.0,
        1.0
      ],
      "min": [
        -1.0,
        -1.0,
        -1.0
      ],
      "type": "VEC3"
    },
    {
      "bufferView": 3,
      "componentType": 5126,
      "count": 4137,
      "max": [
        1.0,
        1.0,
        1.0,
        1.0
      ],
      "min": [
        -1.0,
        -1.0,
        -1.0,
        -1.0
      ],
      "type": "VEC4"
    },
    {
      "bufferView": 1,
      "componentType": 5126,
      "count": 4137,
      "max": [
        2.6884267330169678,
        1.4566330909729004
      ],
      "min": [
        0.007249020505696535,
        0.010583550669252872
      ],
      "type": "VEC2"
    },
    {
      "bufferView": 1,
      "byteOffset": 33096,
      "componentType": 5126,
      "count": 4137,
      "max": [
        2.6884267330169678,
        1.4566330909729004
      ],
      "min": [
        0.007249020505696535,
        0.010583550669252872
      ],
      "type": "VEC2"
    },
    {
      "bufferView": 1,
      "byteOffset": 66192,
      "componentType": 5126,
      "count": 4137,
      "max": [
        2.6884267330169678,
        1.4566330909729004
      ],
      "min": [
        0.007249020505696535,
        0.010583550669252872
      ],
      "type": "VEC2"
    },
    {
      "bufferView": 1,
      "byteOffset": 99288,
      "componentType": 5126,
      "count": 4137,
      "max": [
        2.6884267330169678,
        1.4566330909729004
      ],
      "min": [
        0.007249020505696535,
        0.010583550669252872
      ],
      "type": "VEC2"
    },
    {
      "bufferView": 0,
      "componentType": 5125,
      "count": 11490,
      "type": "SCALAR"
    }
  ],
  "asset": {
    "extras": {
      "author": "Glowbox 3D (https://sketchfab.com/ra3id)",
      "license": "CC-BY-4.0 (http://creativecommons.org/licenses/by/4.0/)",
      "source": "https://sketchfab.com/3d-models/water-heater-used-f1a7274c1a4c4d849cb2e67859763532",
      "title": "Water Heater (used)"
    },
    "generator": "Sketchfab-15.30.0",
    "version": "2.0"
  },
  "bufferViews": [
    {
      "buffer": 0,
      "byteLength": 45960,
      "name": "floatBufferViews",
      "target": 34963
    },
    {
      "buffer": 0,
      "byteLength": 132384,
      "byteOffset": 45960,
      "byteStride": 8,
      "name": "floatBufferViews",
      "target": 34962
    },
    {
      "buffer": 0,
      "byteLength": 99288,
      "byteOffset": 178344,
      "byteStride": 12,
      "name": "floatBufferViews",
      "target": 34962
    },
    {
      "buffer": 0,
      "byteLength": 66192,
      "byteOffset": 277632,
      "byteStride": 16,
      "name": "floatBufferViews",
      "target": 34962
    }
  ],
  "buffers": [
    {
      "byteLength": 343824,
      "uri": ".bin"
    }
  ],
  "images": [
    {
      "uri": "textures/Heater_baseColor.png"
    },
    {
      "uri": "textures/Heater_metallicRoughness.png"
    },
    {
      "uri": "textures/Heater_normal.png"
    }
  ],
  "materials": [
    {
      "doubleSided": true,
      "name": "Heater",
      "normalTexture": {
        "index": 2
      },
      "pbrMetallicRoughness": {
        "baseColorTexture": {
          "index": 0
        },
        "metallicRoughnessTexture": {
          "index": 1
        }
      }
    }
  ],
  "meshes": [
    {
      "name": "Object_0",
      "primitives": [
        {
          "attributes": {
            "NORMAL": 1,
            "POSITION": 0,
            "TANGENT": 2,
            "TEXCOORD_0": 3,
            "TEXCOORD_1": 4,
            "TEXCOORD_2": 5,
            "TEXCOORD_3": 6
          },
          "indices": 7,
          "material": 0,
          "mode": 4
        }
      ]
    }
  ],
  "nodes": [
    {
      "children": [
        1
      ],
      "matrix": [
        1.0,
        0.0,
        0.0,
        0.0,
        0.0,
        2.220446049250313e-16,
        -1.0,
        0.0,
        0.0,
        1.0,
        2.220446049250313e-16,
        0.0,
        0.0,
        0.0,
        0.0,
        1.0
      ],
      "name": "Sketchfab_model"
    },
    {
      "children": [
        2
      ],
      "name": "root"
    },
    {
      "children": [
        3
      ],
      "matrix": [
        1.0,
        0.0,
        0.0,
        0.0,
        0.0,
        2.220446049250313e-16,
        1.0,
        0.0,
        0.0,
        -1.0,
        2.220446049250313e-16,
        0.0,
        0.0,
        0.0,
        0.0,
        1.0
      ],
      "name": "GLTF_SceneRootNode"
    },
    {
      "children": [
        4
      ],
      "matrix": [
        0.6403976678848267,
        0.0,
        0.0,
        0.0,
        0.0,
        0.6403976678848267,
        0.0,
        0.0,
        0.0,
        0.0,
        0.6403976678848267,
        0.0,
        0.0,
        0.0,
        0.0,
        1.0
      ],
      "name": "Cylinder_0"
    },
    {
      "mesh": 0,
      "name": "Object_4"
    }
  ],
  "samplers": [
    {
      "magFilter": 9729,
      "minFilter": 9987,
      "wrapS": 10497,
      "wrapT": 10497
    }
  ],
  "scene": 0,
  "scenes": [
    {
      "name": "Sketchfab_Scene",
      "nodes": [
        0
      ]
    }
  ],
  "textures": [
    {
      "sampler": 0,
      "source": 0
    },
    {
      "sampler": 0,
      "source": 1
    },
    {
      "sampler": 0,
      "source": 2
    }
  ]
}
