{
  "accessors": [
    {
      "bufferView": 2,
      "componentType": 5126,
      "count": 1830,
      "max": [
        0.695330798625946,
        0.400104284286499,
        2.3023202419281006
      ],
      "min": [
        -0.6951777338981628,
        -0.39700648188591003,
        0.0
      ],
      "type": "VEC3"
    },
    {
      "bufferView": 2,
      "byteOffset": 21960,
      "componentType": 5126,
      "count": 1830,
      "max": [
        1.0,
        1.0,
        1.0
      ],
      "min": [
        -1.0,
        -1.0,
        -1.0
      ],
      "type": "VEC3"
    },
    {
      "bufferView": 3,
      "componentType": 5126,
      "count": 1830,
      "max": [
        1.0,
        1.0,
        1.0,
        1.0
      ],
      "min": [
        -1.0,
        -1.0,
        -1.0,
        1.0
      ],
      "type": "VEC4"
    },
    {
      "bufferView": 1,
      "componentType": 5126,
      "count": 1830,
      "max": [
        0.9959633946418762,
        0.991637647151947
      ],
      "min": [
        0.004032301716506481,
        0.004036068916320801
      ],
      "type": "VEC2"
    },
    {
      "bufferView": 1,
      "byteOffset": 14640,
      "componentType": 5126,
      "count": 1830,
      "max": [
        0.9959633946418762,
        0.991637647151947
      ],
      "min": [
        0.004032301716506481,
        0.004036068916320801
      ],
      "type": "VEC2"
    },
    {
      "bufferView": 1,
      "byteOffset": 29280,
      "componentType": 5126,
      "count": 1830,
      "max": [
        0.9959633946418762,
        0.991637647151947
      ],
      "min": [
        0.004032301716506481,
        0.004036068916320801
      ],
      "type": "VEC2"
    },
    {
      "bufferView": 0,
      "componentType": 5125,
      "count": 3330,
      "type": "SCALAR"
    },
    {
      "bufferView": 2,
      "byteOffset": 43920,
      "componentType": 5126,
      "count": 1830,
      "max": [
        0.695330798625946,
        0.400104284286499,
        2.3023202419281006
      ],
      "min": [
        -0.6951777338981628,
        -0.39700648188591003,
        0.0
      ],
      "type": "VEC3"
    },
    {
      "bufferView": 2,
      "byteOffset": 65880,
      "componentType": 5126,
      "count": 1830,
      "max": [
        1.0,
        1.0,
        1.0
      ],
      "min": [
        -1.0,
        -1.0,
        -1.0
      ],
      "type": "VEC3"
    },
    {
      "bufferView": 3,
      "byteOffset": 29280,
      "componentType": 5126,
      "count": 1830,
      "max": [
        1.0,
        1.0,
        1.0,
        1.0
      ],
      "min": [
        -1.0,
        -1.0,
        -1.0,
        1.0
      ],
      "type": "VEC4"
    },
    {
      "bufferView": 1,
      "byteOffset": 43920,
      "componentType": 5126,
      "count": 1830,
      "max": [
        0.9959633946418762,
        0.991637647151947
      ],
      "min": [
        0.004032301716506481,
        0.004036068916320801
      ],
      "type": "VEC2"
    },
    {
      "bufferView": 1,
      "byteOffset": 58560,
      "componentType": 5126,
      "count": 1830,
      "max": [
        0.9959633946418762,
        0.991637647151947
      ],
      "min": [
        0.004032301716506481,
        0.004036068916320801
      ],
      "type": "VEC2"
    },
    {
      "bufferView": 1,
      "byteOffset": 73200,
      "componentType": 5126,
      "count": 1830,
      "max": [
        0.9959633946418762,
        0.991637647151947
      ],
      "min": [
        0.004032301716506481,
        0.004036068916320801
      ],
      "type": "VEC2"
    },
    {
      "bufferView": 0,
      "byteOffset": 13320,
      "componentType": 5125,
      "count": 3330,
      "type": "SCALAR"
    },
    {
      "bufferView": 2,
      "byteOffset": 87840,
      "componentType": 5126,
      "count": 1830,
      "max": [
        0.695330798625946,
        0.400104284286499,
        2.3023202419281006
      ],
      "min": [
        -0.6951777338981628,
        -0.39700648188591003,
        0.0
      ],
      "type": "VEC3"
    },
    {
      "bufferView": 2,
      "byteOffset": 109800,
      "componentType": 5126,
      "count": 1830,
      "max": [
        1.0,
        1.0,
        1.0
      ],
      "min": [
        -1.0,
        -1.0,
        -1.0
      ],
      "type": "VEC3"
    },
    {
      "bufferView": 3,
      "byteOffset": 58560,
      "componentType": 5126,
      "count": 1830,
      "max": [
        1.0,
        1.0,
        1.0,
        1.0
      ],
      "min": [
        -1.0,
        -1.0,
        -1.0,
        1.0
      ],
      "type": "VEC4"
    },
    {
      "bufferView": 1,
      "byteOffset": 87840,
      "componentType": 5126,
      "count": 1830,
      "max": [
        0.9959633946418762,
        0.991637647151947
      ],
      "min": [
        0.004032301716506481,
        0.004036068916320801
      ],
      "type": "VEC2"
    },
    {
      "bufferView": 1,
      "byteOffset": 102480,
      "componentType": 5126,
      "count": 1830,
      "max": [
        0.9959633946418762,
        0.991637647151947
      ],
      "min": [
        0.004032301716506481,
        0.004036068916320801
      ],
      "type": "VEC2"
    },
    {
      "bufferView": 1,
      "byteOffset": 117120,
      "componentType": 5126,
      "count": 1830,
      "max": [
        0.9959633946418762,
        0.991637647151947
      ],
      "min": [
        0.004032301716506481,
        0.004036068916320801
      ],
      "type": "VEC2"
    },
    {
      "bufferView": 0,
      "byteOffset": 26640,
      "componentType": 5125,
      "count": 3330,
      "type": "SCALAR"
    }
  ],
  "asset": {
    "extras": {
      "author": "Minh Nguyen (https://sketchfab.com/Minh_Nguyen_2004)",
      "license": "CC-BY-NC-4.0 (http://creativecommons.org/licenses/by-nc/4.0/)",
      "source": "https://sketchfab.com/3d-models/metal-rack-shelf-2k-textures-072a86882e6f4628833fe858d80e3b40",
      "title": "Metal Rack Shelf (2K Textures)"
    },
    "generator": "Sketchfab-16.14.0",
    "version": "2.0"
  },
  "bufferViews": [
    {
      "buffer": 0,
      "byteLength": 39960,
      "name": "floatBufferViews",
      "target": 34963
    },
    {
      "buffer": 0,
      "byteLength": 131760,
      "byteOffset": 39960,
      "byteStride": 8,
      "name": "floatBufferViews",
      "target": 34962
    },
    {
      "buffer": 0,
      "byteLength": 131760,
      "byteOffset": 171720,
      "byteStride": 12,
      "name": "floatBufferViews",
      "target": 34962
    },
    {
      "buffer": 0,
      "byteLength": 87840,
      "byteOffset": 303480,
      "byteStride": 16,
      "name": "floatBufferViews",
      "target": 34962
    }
  ],
  "buffers": [
    {
      "byteLength": 391320,
      "uri": "scene.bin"
    }
  ],
  "extensionsUsed": [
    "KHR_materials_specular"
  ],
  "images": [
    {
      "uri": "textures/metal_shelf_rack_1_baseColor.jpeg"
    },
    {
      "uri": "textures/metal_shelf_rack_1_metallicRoughness.png"
    },
    {
      "uri": "textures/metal_shelf_rack_1_normal.png"
    },
    {
      "uri": "textures/metal_shelf_rack_3_baseColor.jpeg"
    },
    {
      "uri": "textures/metal_shelf_rack_3_metallicRoughness.png"
    },
    {
      "uri": "textures/metal_shelf_rack_3_normal.png"
    },
    {
      "uri": "textures/metal_shelf_rack_2_baseColor.jpeg"
    },
    {
      "uri": "textures/metal_shelf_rack_2_metallicRoughness.png"
    },
    {
      "uri": "textures/metal_shelf_rack_2_normal.png"
    }
  ],
  "materials": [
    {
      "extensions": {
        "KHR_materials_specular": {
          "specularColorFactor": [
            1.0,
            1.0,
            1.0
          ],
          "specularFactor": 0.5170290118439878
        }
      },
      "name": "metal_shelf_rack_1",
      "normalTexture": {
        "index": 2
      },
      "pbrMetallicRoughness": {
        "baseColorTexture": {
          "index": 0
        },
        "metallicRoughnessTexture": {
          "index": 1
        }
      }
    },
    {
      "name": "metal_shelf_rack_3",
      "normalTexture": {
        "index": 5
      },
      "pbrMetallicRoughness": {
        "baseColorTexture": {
          "index": 3
        },
        "metallicRoughnessTexture": {
          "index": 4
        }
      }
    },
    {
      "name": "metal_shelf_rack_2",
      "normalTexture": {
        "index": 8
      },
      "pbrMetallicRoughness": {
        "baseColorTexture": {
          "index": 6
        },
        "metallicRoughnessTexture": {
          "index": 7
        }
      }
    }
  ],
  "meshes": [
    {
      "name": "metal_shelf_rack_mesh_01_metal shelf rack 1_0",
      "primitives": [
        {
          "attributes": {
            "NORMAL": 1,
            "POSITION": 0,
            "TANGENT": 2,
            "TEXCOORD_0": 3,
            "TEXCOORD_1": 4,
            "TEXCOORD_2": 5
          },
          "indices": 6,
          "material": 0,
          "mode": 4
        }
      ]
    },
    {
      "name": "metal_shelf_rack_mesh_03_metal shelf rack 3_0",
      "primitives": [
        {
          "attributes": {
            "NORMAL": 8,
            "POSITION": 7,
            "TANGENT": 9,
            "TEXCOORD_0": 10,
            "TEXCOORD_1": 11,
            "TEXCOORD_2": 12
          },
          "indices": 13,
          "material": 1,
          "mode": 4
        }
      ]
    },
    {
      "name": "metal_shelf_rack_mesh_02_metal shelf rack 2_0",
      "primitives": [
        {
          "attributes": {
            "NORMAL": 15,
            "POSITION": 14,
            "TANGENT": 16,
            "TEXCOORD_0": 17,
            "TEXCOORD_1": 18,
            "TEXCOORD_2": 19
          },
          "indices": 20,
          "material": 2,
          "mode": 4
        }
      ]
    }
  ],
  "nodes": [
    {
      "children": [
        1
      ],
      "matrix": [
        1.0,
        0.0,
        0.0,
        0.0,
        0.0,
        2.220446049250313e-16,
        -1.0,
        0.0,
        0.0,
        1.0,
        2.220446049250313e-16,
        0.0,
        0.0,
        0.0,
        0.0,
        1.0
      ],
      "name": "Sketchfab_model"
    },
    {
      "children": [
        2
      ],
      "matrix": [
        0.009999999776482582,
        0.0,
        0.0,
        0.0,
        0.0,
        0.0,
        0.009999999776482582,
        0.0,
        0.0,
        -0.009999999776482582,
        0.0,
        0.0,
        0.0,
        0.0,
        0.0,
        1.0
      ],
      "name": "b80cd76616e04f85b04b75c1f561ebeb.fbx"
    },
    {
      "children": [
        3,
        5,
        7
      ],
      "name": "RootNode"
    },
    {
      "children": [
        4
      ],
      "matrix": [
        100.0,
        0.0,
        0.0,
        0.0,
        -0.0,
        -1.629206793918314e-05,
        -99.99999999999868,
        0.0,
        0.0,
        99.99999999999868,
        -1.629206793918314e-05,
        0.0,
        -2373.344970703125,
        0.0,
        125.02460479736328,
        1.0
      ],
      "name": "metal_shelf_rack_mesh_01"
    },
    {
      "mesh": 0,
      "name": "metal_shelf_rack_mesh_01_metal shelf rack 1_0"
    },
    {
      "children": [
        6
      ],
      "matrix": [
        100.0,
        0.0,
        0.0,
        0.0,
        -0.0,
        -1.629206793918314e-05,
        -99.99999999999868,
        0.0,
        0.0,
        99.99999999999868,
        -1.629206793918314e-05,
        0.0,
        -2000.4954833984375,
        0.0,
        125.02460479736328,
        1.0
      ],
      "name": "metal_shelf_rack_mesh_03"
    },
    {
      "mesh": 1,
      "name": "metal_shelf_rack_mesh_03_metal shelf rack 3_0"
    },
    {
      "children": [
        8
      ],
      "matrix": [
        100.0,
        0.0,
        0.0,
        0.0,
        -0.0,
        -1.629206793918314e-05,
        -99.99999999999868,
        0.0,
        0.0,
        99.99999999999868,
        -1.629206793918314e-05,
        0.0,
        -2185.345947265625,
        0.0,
        125.02460479736328,
        1.0
      ],
      "name": "metal_shelf_rack_mesh_02"
    },
    {
      "mesh": 2,
      "name": "metal_shelf_rack_mesh_02_metal shelf rack 2_0"
    }
  ],
  "samplers": [
    {
      "magFilter": 9729,
      "minFilter": 9987,
      "wrapS": 10497,
      "wrapT": 10497
    }
  ],
  "scene": 0,
  "scenes": [
    {
      "name": "Sketchfab_Scene",
      "nodes": [
        0
      ]
    }
  ],
  "textures": [
    {
      "sampler": 0,
      "source": 0
    },
    {
      "sampler": 0,
      "source": 1
    },
    {
      "sampler": 0,
      "source": 2
    },
    {
      "sampler": 0,
      "source": 3
    },
    {
      "sampler": 0,
      "source": 4
    },
    {
      "sampler": 0,
      "source": 5
    },
    {
      "sampler": 0,
      "source": 6
    },
    {
      "sampler": 0,
      "source": 7
    },
    {
      "sampler": 0,
      "source": 8
    }
  ]
}
